<?xml version="1.0" encoding="UTF-8" ?>
<!DOCTYPE svg PUBLIC "-//W3C//DTD SVG 1.1//EN" "http://www.w3.org/Graphics/SVG/1.1/DTD/svg11.dtd">
<svg width="104px" height="128px" viewBox="0 0 104 128" version="1.1" xmlns="http://www.w3.org/2000/svg"><path d="m105.902 17.113v27.964c0 11.602-1.981 22.517-5.72 32.401-10.697-4.319-19.24-.52-24.765 3.783 2.594-6.792 3.257-12.853 3.381-14.273.827-1.662 1.957-2.674 3.448-3.089 4.038-1.119 9.319 2.395 9.372 2.43l1.538 1.038 8.5-21.077-26.413-25.781-20.95 2.394c-.438.068-.87.151-1.303.233-3.979-5.149-8.989-9.396-14.774-11.906l20.907-5.062 46.779 10.945zm-45.969 30.947c.753 8.043-.147 27.447-24.507 34.555l-12.534-22.207c.989-10.043 5.625-18.948 12.559-25.263l.172.23c6 8.034 6.011 16.55.033 23.978l-.941 1.169 2.338 1.881.941-1.169c6.919-8.597 6.93-18.418.033-27.654l-.276-.37a37.012 37.012 0 0 1 14.057-6.758c4.385 6.117 7.379 13.646 8.125 21.608zm21.763-16.973c-2.975 2.43-6.676 5.456-5.869 18.735.509 8.384.112 15.044.02 16.387l-.005.01-.015.287c-.006.086-.547 8.775-4.703 17.333-5.347 11.008-13.939 16.645-25.545 16.762l-8.641-15.309c17.975-5.524 27.673-19.471 25.982-37.512-.695-7.4-3.523-15.236-7.984-21.933l19.231-2.196 7.582 7.4c-.018.014-.036.022-.053.036zm5.764 14.953c2.623.049 4.787-1.977 4.968-4.565l5.693 5.557-6.404 15.88c-2.235-1.188-6.461-2.961-10.264-1.905a7.894 7.894 0 0 0 -2.419 1.132c.082-3.064.094-7.443-.213-12.499-.713-11.746 2.076-14.026 4.773-16.231.107-.087.192-.188.268-.295l8.305 8.107-9.521-.179a4.907 4.907 0 0 0 4.814 4.998zm-27.427 74.787c-28.853-13.434-46.033-41.648-46.033-75.75v-27.983l18.769-4.544c6.379 1.623 12.33 5.714 17.043 11.33-16.348 4.521-28.407 19.03-29.951 36.726l-.041.463 24 42.52.862.011c.176.002.346.003.521.003 12.028 0 19.777-5.458 24.76-12.177l.142.092.811-1.259c.028-.044 2.861-4.401 7.81-7.766 6.408-4.356 13.253-5.102 20.347-2.231-7.523 17.899-20.986 32.156-39.04 40.565zm-52.033-108.453v32.703c0 37.019 18.995 67.594 50.81 81.787l1.223.545 1.222-.545c31.713-14.147 50.647-44.722 50.647-81.787v-32.722l-52.803-12.355z" fill="#fff" fill-rule="evenodd" transform="translate(-8)"></path></svg>