<?xml version="1.0" encoding="UTF-8"?>
<svg
  width="634px"
  height="518px"
  viewBox="0 0 634 518"
  version="1.1"
  xmlns="http://www.w3.org/2000/svg"
  xmlns:xlink="http://www.w3.org/1999/xlink">

  <g id="Group" transform="translate(317.289935, 259.289935) rotate(-45.000000) translate(-317.289935, -259.289935) translate(-18.710065, 118.289935)">
    
    <path d="M350,0 C377.614237,-5.07265313e-15 400,22.3857625 400,50 L400,150 C400,177.614237 377.614237,200 350,200 L50,200 C22.3857625,200 3.38176876e-15,177.614237 0,150 L0,50 C-3.38176876e-15,22.3857625 22.3857625,5.07265313e-15 50,0 L350,0 Z M335,50 L65,50 C56.7157288,50 50,56.7157288 50,65 L50,65 L50,135 C50,143.284271 56.7157288,150 65,150 L65,150 L335,150 C343.284271,150 350,143.284271 350,135 L350,135 L350,65 C350,56.7157288 343.284271,50 335,50 L335,50 Z" id="Combined-Shape" fill="#F7B500"></path>
    
    <path d="M622,82 C649.614237,82 672,104.385763 672,132 L672,232 C672,259.614237 649.614237,282 622,282 L322,282 C294.385763,282 272,259.614237 272,232 L272,132 C272,104.385763 294.385763,82 322,82 L350,82 L350,132 L337,132 C328.820593,132 322.17027,138.546786 322.003218,146.686172 L322,147 L322,217 C322,225.179407 328.546786,231.82973 336.686172,231.996782 L337,232 L607,232 C615.179407,232 621.82973,225.453214 621.996782,217.313828 L622,217 L622,147 C622,138.715729 615.284271,132 607,132 L400,132 L400,82 L622,82 Z" id="Combined-Shape" fill="#6236FF"></path>
  
  </g>
</svg>