<?xml version="1.0" encoding="UTF-8"?>
<svg viewBox="0 0 855 990" version="1.1" xmlns="http://www.w3.org/2000/svg">
    <path d="M854.42,427.241685 C854.42,191.435233 663.109823,0.17 427.42,0.17 C191.730177,0.17 0.42,191.435233 0.42,427.241685 C0.42,650.641326 204.134904,831.811577 427.42,831.811577 L427.42,989.17 C686.763558,857.549928 854.42,645.786487 854.42,427.241685 Z" id="Path" fill="#00897B"></path>
    <path d="M579.94986,384.516127 L579.94986,314.375163 C579.94986,299.977402 574.476673,285.656635 563.453211,274.646582 C552.506837,263.713523 538.091542,258.17 523.676246,258.17 L242.693614,258.17 C228.278318,258.17 213.94011,263.63653 202.916648,274.646582 C191.970274,285.579641 186.42,299.977402 186.42,314.375163 L186.42,538.964837 C186.42,553.362598 191.893187,567.683365 202.916648,578.693418 C213.94011,589.70347 228.278318,595.17 242.693614,595.17 L523.753333,595.17 C538.168629,595.17 552.506837,589.70347 563.530299,578.693418 C574.476673,567.760359 580.026947,553.362598 580.026947,538.964837 L580.026947,468.823873 L692.42,581.080212 L692.42,272.259788 L579.94986,384.516127 Z" id="Path" fill="#F5F5F5"></path>
    <path d="M186.42,314.554826 L186.42,427.17 L691.42,427.17 L691.42,272.304826 L579.21488,384.92 L579.21488,314.554826 C579.21488,300.111042 573.750844,285.744497 562.745815,274.69925 C551.817745,263.731243 537.426553,258.17 523.035361,258.17 L242.52256,258.17 C228.131368,258.17 213.817135,263.654004 202.812106,274.69925 C191.884035,285.667258 186.42,300.111042 186.42,314.554826 Z" id="Path" fill="#E0E0E0"></path>
</svg>
