<?xml version="1.0" encoding="UTF-8"?>
<svg viewBox="0 0 222 100" version="1.1" xmlns="http://www.w3.org/2000/svg">
    <rect fill="#5E5E5E" x="0" y="0" width="222" height="100" rx="50"></rect>
    <circle fill="#FFFFFF" cx="50" cy="50" r="45"></circle>
    <path d="M122.481219,32.3266602 C126.117956,32.3266602 129.24024,33.0643644 131.848163,34.5397949 C134.456086,36.0152255 136.429943,38.112698 137.769794,40.8322754 C139.109644,43.5518528 139.779559,46.7459126 139.779559,50.4145508 C139.779559,53.1261529 139.412701,55.5904837 138.678973,57.8076172 C137.945246,60.0247507 136.844671,61.9467692 135.377216,63.5737305 C133.90976,65.2006917 132.107369,66.4448199 129.969989,67.3061523 C127.832609,68.1674848 125.384228,68.5981445 122.624774,68.5981445 C119.881271,68.5981445 117.424915,68.155522 115.255634,67.2702637 C113.086352,66.3850053 111.275986,65.1368896 109.824481,63.5258789 C108.372977,61.9148682 107.276389,59.9768993 106.534686,57.7119141 C105.792983,55.4469288 105.422137,52.9985483 105.422137,50.3666992 C105.422137,47.6710477 105.808934,45.1987417 106.582538,42.949707 C107.356142,40.7006723 108.476655,38.786629 109.94411,37.2075195 C111.411565,35.6284101 113.198006,34.4201702 115.303485,33.5827637 C117.408964,32.7453571 119.801519,32.3266602 122.481219,32.3266602 Z M132.577899,50.3666992 C132.577899,47.7986525 132.16319,45.5735771 131.333759,43.6914062 C130.504327,41.8092354 129.320013,40.3856656 127.78078,39.4206543 C126.241547,38.455643 124.475045,37.9731445 122.481219,37.9731445 C121.061616,37.9731445 119.749699,38.2403131 118.545428,38.7746582 C117.341158,39.3090033 116.304385,40.0865834 115.435077,41.1074219 C114.565769,42.1282603 113.879904,43.4322024 113.37746,45.0192871 C112.875016,46.6063719 112.623798,48.3888247 112.623798,50.3666992 C112.623798,52.3605243 112.875016,54.1629151 113.37746,55.7739258 C113.879904,57.3849364 114.589695,58.7207792 115.506854,59.7814941 C116.424014,60.8422091 117.476738,61.6357396 118.665057,62.1621094 C119.853377,62.6884792 121.157319,62.9516602 122.576923,62.9516602 C124.395291,62.9516602 126.066091,62.4970749 127.589374,61.5878906 C129.112656,60.6787064 130.324884,59.2750746 131.226093,57.3769531 C132.127301,55.4788317 132.577899,53.1421037 132.577899,50.3666992 Z M168.001715,38.4038086 L154.005133,38.4038086 L154.005133,47.3759766 L165.70484,47.3759766 C166.789481,47.3759766 167.598962,47.6192196 168.133307,48.1057129 C168.667652,48.5922062 168.934821,49.2421834 168.934821,50.0556641 C168.934821,50.8691447 168.663664,51.5151343 168.121344,51.9936523 C167.579024,52.4721704 166.77353,52.7114258 165.70484,52.7114258 L154.005133,52.7114258 L154.005133,64.2675781 C154.005133,65.7350334 153.674163,66.8236455 153.012213,67.5334473 C152.350263,68.243249 151.500906,68.5981445 150.464117,68.5981445 C149.411378,68.5981445 148.554046,68.2392614 147.892096,67.5214844 C147.230146,66.8037073 146.899176,65.7190828 146.899176,64.2675781 L146.899176,37.2792969 C146.899176,36.2584584 147.050704,35.4250521 147.353766,34.7790527 C147.656827,34.1330534 148.131351,33.6625178 148.77735,33.3674316 C149.423349,33.0723455 150.24878,32.9248047 151.253668,32.9248047 L168.001715,32.9248047 C169.134208,32.9248047 169.975589,33.1760229 170.525885,33.6784668 C171.076181,34.1809107 171.351324,34.8388631 171.351324,35.6523438 C171.351324,36.481775 171.076181,37.1477026 170.525885,37.6501465 C169.975589,38.1525904 169.134208,38.4038086 168.001715,38.4038086 Z M198.783929,38.4038086 L184.787347,38.4038086 L184.787347,47.3759766 L196.487054,47.3759766 C197.571695,47.3759766 198.381176,47.6192196 198.915521,48.1057129 C199.449866,48.5922062 199.717035,49.2421834 199.717035,50.0556641 C199.717035,50.8691447 199.445879,51.5151343 198.903558,51.9936523 C198.361238,52.4721704 197.555745,52.7114258 196.487054,52.7114258 L184.787347,52.7114258 L184.787347,64.2675781 C184.787347,65.7350334 184.456377,66.8236455 183.794427,67.5334473 C183.132478,68.243249 182.283121,68.5981445 181.246332,68.5981445 C180.193592,68.5981445 179.33626,68.2392614 178.67431,67.5214844 C178.01236,66.8037073 177.68139,65.7190828 177.68139,64.2675781 L177.68139,37.2792969 C177.68139,36.2584584 177.832919,35.4250521 178.13598,34.7790527 C178.439042,34.1330534 178.913565,33.6625178 179.559564,33.3674316 C180.205564,33.0723455 181.030995,32.9248047 182.035883,32.9248047 L198.783929,32.9248047 C199.916422,32.9248047 200.757804,33.1760229 201.308099,33.6784668 C201.858395,34.1809107 202.133539,34.8388631 202.133539,35.6523438 C202.133539,36.481775 201.858395,37.1477026 201.308099,37.6501465 C200.757804,38.1525904 199.916422,38.4038086 198.783929,38.4038086 Z" fill="#FFFFFF" fill-rule="nonzero"></path>
</svg>