<?xml version="1.0" encoding="UTF-8"?>
<svg viewBox="0 0 222 100" version="1.1" xmlns="http://www.w3.org/2000/svg">
    <rect fill="#12B8E9" x="0" y="0" width="222" height="100" rx="50"></rect>
    <circle fill="#FFFFFF" cx="172" cy="50" r="45"></circle>
    <path d="M56.0561645,32.3266602 C59.6929015,32.3266602 62.8151847,33.0643644 65.4231079,34.5397949 C68.0310311,36.0152255 70.0048883,38.112698 71.3447388,40.8322754 C72.6845892,43.5518528 73.3545044,46.7459126 73.3545044,50.4145508 C73.3545044,53.1261529 72.9876461,55.5904837 72.2539185,57.8076172 C71.5201908,60.0247507 70.4196159,61.9467692 68.9521606,63.5737305 C67.4847054,65.2006917 65.6823146,66.4448199 63.5449341,67.3061523 C61.4075536,68.1674848 58.9591731,68.5981445 56.1997192,68.5981445 C53.4562159,68.5981445 50.9998603,68.155522 48.8305786,67.2702637 C46.6612969,66.3850053 44.8509309,65.1368896 43.3994263,63.5258789 C41.9479216,61.9148682 40.8513343,59.9768993 40.1096313,57.7119141 C39.3679284,55.4469288 38.9970825,52.9985483 38.9970825,50.3666992 C38.9970825,47.6710477 39.3838788,45.1987417 40.1574829,42.949707 C40.931087,40.7006723 42.0515999,38.786629 43.5190552,37.2075195 C44.9865104,35.6284101 46.7729509,34.4201702 48.8784302,33.5827637 C50.9839095,32.7453571 53.3764637,32.3266602 56.0561645,32.3266602 Z M56.0561645,37.9731445 C54.6365611,37.9731445 53.3246439,38.2403131 52.1203735,38.7746582 C50.9161032,39.3090033 49.8793297,40.0865834 49.010022,41.1074219 C48.1407142,42.1282603 47.4548487,43.4322024 46.9524048,45.0192871 C46.4499609,46.6063719 46.1987427,48.3888247 46.1987427,50.3666992 C46.1987427,52.3605243 46.4499609,54.1629151 46.9524048,55.7739258 C47.4548487,57.3849364 48.1646398,58.7207792 49.0817993,59.7814941 C49.9989588,60.8422091 51.0516827,61.6357396 52.2400024,62.1621094 C53.4283222,62.6884792 54.7322642,62.9516602 56.1518677,62.9516602 C57.9702361,62.9516602 59.6410365,62.4970749 61.1643188,61.5878906 C62.6876012,60.6787064 63.8998287,59.2750746 64.8010376,57.3769531 C65.7022465,55.4788317 66.1528442,53.1421037 66.1528442,50.3666992 C66.1528442,47.7986525 65.7381348,45.5735771 64.9087036,43.6914062 C64.0792724,41.8092354 62.8949581,40.3856656 61.3557251,39.4206543 C59.8164921,38.455643 58.0499896,37.9731445 56.0561645,37.9731445 Z M89.8769531,36.5854492 L103.538574,57.2573242 L103.538574,36.394043 C103.538574,35.0382419 103.829668,34.0214064 104.411865,33.3435059 C104.994062,32.6656053 105.779617,32.3266602 106.768555,32.3266602 C107.789393,32.3266602 108.594886,32.6656053 109.185059,33.3435059 C109.775231,34.0214064 110.070312,35.0382419 110.070312,36.394043 L110.070312,63.9804688 C110.070312,67.0589347 108.794284,68.5981445 106.242187,68.5981445 C105.604163,68.5981445 105.02995,68.50643 104.519531,68.322998 C104.009112,68.1395661 103.530601,67.848472 103.083984,67.449707 C102.637368,67.050942 102.222658,66.5843939 101.839844,66.0500488 C101.457029,65.5157037 101.074221,64.9694038 100.691406,64.4111328 L87.3647461,43.9785156 L87.3647461,64.5307617 C87.3647461,65.8706122 87.053714,66.8834601 86.4316406,67.5693359 C85.8095672,68.2552118 85.0120491,68.5981445 84.0390625,68.5981445 C83.0341747,68.5981445 82.2286814,68.2512242 81.6225586,67.557373 C81.0164358,66.8635219 80.7133789,65.8546616 80.7133789,64.5307617 L80.7133789,37.4707031 C80.7133789,36.3222599 80.8409818,35.4210645 81.0961914,34.7670898 C81.3992528,34.0493128 81.9016892,33.463137 82.6035156,33.0085449 C83.3053421,32.5539528 84.0629842,32.3266602 84.8764648,32.3266602 C85.5144889,32.3266602 86.0607887,32.4303375 86.5153809,32.6376953 C86.969973,32.8450531 87.368732,33.1241844 87.7116699,33.4750977 C88.0546078,33.8260109 88.4055158,34.2805962 88.7644043,34.8388672 L89.4981278,35.987304 C89.6230734,36.1840267 89.7493483,36.3834083 89.8769531,36.5854492 Z" fill="#FFFFFF" fill-rule="nonzero"></path>
</svg>